<svg width="1110" height="165" viewBox="0 0 1110 165" fill="none" xmlns="http://www.w3.org/2000/svg">
<g clip-path="url(#clip0_878_101543)">
<g clip-path="url(#clip1_878_101543)">
<path fill-rule="evenodd" clip-rule="evenodd" d="M1027.5 165C1073.06 165 1110 128.063 1110 82.5C1110 36.9365 1073.06 0 1027.5 0C981.937 0 945 36.9365 945 82.5C945 128.063 981.937 165 1027.5 165Z" fill="white"/>
<path d="M1012.09 101.578H1013.52L1009.4 113H1008.09L1003.99 101.578H1005.4L1008.02 108.969C1008.33 109.818 1008.57 110.643 1008.74 111.445C1008.93 110.602 1009.17 109.76 1009.48 108.922L1012.09 101.578ZM1018.52 113.156C1017.25 113.156 1016.25 112.771 1015.52 112C1014.79 111.229 1014.42 110.159 1014.42 108.789C1014.42 107.409 1014.76 106.312 1015.44 105.5C1016.12 104.688 1017.03 104.281 1018.18 104.281C1019.25 104.281 1020.1 104.635 1020.73 105.344C1021.35 106.047 1021.66 106.977 1021.66 108.133V108.953H1015.77C1015.79 109.958 1016.04 110.721 1016.52 111.242C1017.01 111.763 1017.69 112.023 1018.56 112.023C1019.48 112.023 1020.4 111.831 1021.3 111.445V112.602C1020.84 112.799 1020.4 112.94 1019.99 113.023C1019.59 113.112 1019.09 113.156 1018.52 113.156ZM1018.16 105.367C1017.48 105.367 1016.93 105.591 1016.52 106.039C1016.11 106.487 1015.87 107.107 1015.8 107.898H1020.27C1020.27 107.081 1020.09 106.456 1019.73 106.023C1019.36 105.586 1018.84 105.367 1018.16 105.367ZM1030.89 104.438V105.258L1029.3 105.445C1029.45 105.628 1029.58 105.867 1029.7 106.164C1029.81 106.456 1029.87 106.786 1029.87 107.156C1029.87 107.995 1029.58 108.664 1029.01 109.164C1028.43 109.664 1027.65 109.914 1026.65 109.914C1026.39 109.914 1026.15 109.893 1025.93 109.852C1025.38 110.143 1025.1 110.51 1025.1 110.953C1025.1 111.188 1025.2 111.362 1025.39 111.477C1025.58 111.586 1025.91 111.641 1026.38 111.641H1027.9C1028.83 111.641 1029.54 111.836 1030.03 112.227C1030.53 112.617 1030.78 113.185 1030.78 113.93C1030.78 114.878 1030.4 115.599 1029.64 116.094C1028.88 116.594 1027.77 116.844 1026.31 116.844C1025.19 116.844 1024.33 116.635 1023.72 116.219C1023.11 115.802 1022.81 115.214 1022.81 114.453C1022.81 113.932 1022.98 113.482 1023.31 113.102C1023.65 112.721 1024.11 112.464 1024.72 112.328C1024.5 112.229 1024.32 112.076 1024.16 111.867C1024.02 111.659 1023.95 111.417 1023.95 111.141C1023.95 110.828 1024.03 110.555 1024.2 110.32C1024.36 110.086 1024.62 109.859 1024.98 109.641C1024.54 109.458 1024.18 109.148 1023.9 108.711C1023.62 108.273 1023.48 107.773 1023.48 107.211C1023.48 106.273 1023.77 105.552 1024.33 105.047C1024.89 104.536 1025.69 104.281 1026.72 104.281C1027.17 104.281 1027.57 104.333 1027.93 104.438H1030.89ZM1024.06 114.438C1024.06 114.901 1024.26 115.253 1024.65 115.492C1025.04 115.732 1025.6 115.852 1026.33 115.852C1027.42 115.852 1028.22 115.688 1028.74 115.359C1029.27 115.036 1029.53 114.596 1029.53 114.039C1029.53 113.576 1029.39 113.253 1029.1 113.07C1028.82 112.893 1028.28 112.805 1027.48 112.805H1025.93C1025.34 112.805 1024.88 112.945 1024.55 113.227C1024.23 113.508 1024.06 113.911 1024.06 114.438ZM1024.77 107.18C1024.77 107.779 1024.93 108.232 1025.27 108.539C1025.61 108.846 1026.08 109 1026.69 109C1027.95 109 1028.59 108.385 1028.59 107.156C1028.59 105.87 1027.95 105.227 1026.66 105.227C1026.05 105.227 1025.59 105.391 1025.26 105.719C1024.93 106.047 1024.77 106.534 1024.77 107.18ZM1037.91 113L1037.66 111.781H1037.59C1037.17 112.318 1036.74 112.682 1036.31 112.875C1035.89 113.062 1035.36 113.156 1034.73 113.156C1033.88 113.156 1033.21 112.938 1032.73 112.5C1032.25 112.062 1032.01 111.44 1032.01 110.633C1032.01 108.904 1033.39 107.997 1036.16 107.914L1037.61 107.867V107.336C1037.61 106.664 1037.46 106.169 1037.17 105.852C1036.89 105.529 1036.42 105.367 1035.79 105.367C1035.08 105.367 1034.27 105.586 1033.37 106.023L1032.97 105.031C1033.39 104.802 1033.85 104.622 1034.35 104.492C1034.86 104.362 1035.36 104.297 1035.87 104.297C1036.89 104.297 1037.64 104.523 1038.13 104.977C1038.63 105.43 1038.88 106.156 1038.88 107.156V113H1037.91ZM1034.98 112.086C1035.79 112.086 1036.42 111.865 1036.88 111.422C1037.35 110.979 1037.58 110.359 1037.58 109.562V108.789L1036.28 108.844C1035.25 108.88 1034.51 109.042 1034.05 109.328C1033.59 109.609 1033.37 110.049 1033.37 110.648C1033.37 111.117 1033.51 111.474 1033.79 111.719C1034.08 111.964 1034.47 112.086 1034.98 112.086ZM1047.41 113V107.461C1047.41 106.763 1047.26 106.242 1046.94 105.898C1046.62 105.555 1046.12 105.383 1045.45 105.383C1044.55 105.383 1043.89 105.625 1043.48 106.109C1043.06 106.594 1042.85 107.393 1042.85 108.508V113H1041.55V104.438H1042.61L1042.82 105.609H1042.88C1043.15 105.188 1043.52 104.862 1044 104.633C1044.48 104.398 1045.01 104.281 1045.6 104.281C1046.63 104.281 1047.41 104.531 1047.93 105.031C1048.45 105.526 1048.71 106.32 1048.71 107.414V113H1047.41Z" fill="#212121"/>
<path fill-rule="evenodd" clip-rule="evenodd" d="M1003.96 44L1005.36 44.0003L1005.93 44.0126L1006.36 44.0326L1006.68 44.053L1007.03 44.0799L1007.59 44.1345L1007.99 44.1815L1008.41 44.2381L1008.85 44.305L1009.3 44.3831C1009.38 44.3971 1009.46 44.4116 1009.54 44.4266L1010.02 44.523L1010.51 44.6327C1010.68 44.6716 1010.85 44.7129 1011.02 44.7566L1011.53 44.8954C1012.05 45.0419 1012.59 45.2122 1013.13 45.4099L1013.67 45.6169C1017.12 46.9877 1020.77 49.5104 1022.94 54.1428C1024.02 56.4647 1024.98 61.9739 1025 66C1025 60.3401 1028.52 54 1035.5 54C1042.36 54 1045.92 59.1692 1046.03 64.7264L1046.03 65H1052V75H1049.1L1048.96 75.294L1048.78 75.6433L1048.59 75.9854L1048.36 76.3851L1048.18 76.6799L1047.98 76.9948C1047.95 77.0488 1047.91 77.1035 1047.87 77.159L1047.64 77.4998L1047.38 77.8552L1047.11 78.2229C1047.06 78.2851 1047.01 78.3477 1046.96 78.4107L1046.65 78.7928C1046.54 78.9214 1046.43 79.0511 1046.31 79.1816L1045.96 79.575C1043.56 82.1425 1039.67 84.8605 1033.88 84.9948L1033.43 85H1020.57C1014.06 85 1009.92 81.7553 1007.55 78.9624L1007.25 78.5931C1007.2 78.5321 1007.15 78.4713 1007.11 78.411L1006.83 78.0533C1006.79 77.9945 1006.75 77.9361 1006.7 77.8782L1006.46 77.5365L1006.24 77.208L1005.94 76.7442L1005.77 76.4571L1005.54 76.0644L1005.3 75.6221L1005.1 75.2216L1005 75H1002V65H1008.04C1008.02 64.9731 1008.02 64.8754 1008.03 64.76L1008.05 64.5216C1008.06 64.4063 1008.07 64.3089 1008.04 64.2826C1007.44 63.5813 1006.98 62.9386 1006.73 62.3896C1006.43 61.7611 1006.16 60.9369 1005.92 59.9857L1005.78 59.4003C1005.74 59.2005 1005.69 58.9961 1005.65 58.7877L1005.52 58.1513C1005.5 58.0434 1005.48 57.9346 1005.45 57.8251L1005.33 57.159L1005.22 56.4773L1005.11 55.7833L1004.96 54.7263L1004.82 53.6602L1004.69 52.5961L1004.57 51.545L1004.46 50.5182L1004.31 48.891L1004.19 47.4136L1004.08 45.9112L1003.96 44ZM1023 66C1023 65.6387 1022.99 65.2639 1022.97 64.8796L1022.93 64.0936C1022.69 60.6432 1021.92 56.6879 1021.12 54.9913C1019.38 51.2678 1016.46 48.8171 1012.69 47.3799C1010.59 46.5807 1008.48 46.1775 1006.61 46.0478L1006.09 46.018L1006.16 46.9257C1006.33 49.2023 1006.55 51.4778 1006.82 53.5942L1006.99 54.81L1007.1 55.5807L1007.22 56.3178L1007.34 57.02L1007.46 57.686L1007.59 58.3142C1007.61 58.4157 1007.63 58.5156 1007.65 58.6138L1007.78 59.183C1007.81 59.2745 1007.83 59.3642 1007.85 59.4522L1007.98 59.9592C1008.16 60.6067 1008.35 61.139 1008.54 61.5413C1008.7 61.8831 1009.05 62.3802 1009.55 62.9663C1009.89 63.3596 1010 63.7064 1010.05 64.1006L1010.06 64.25L1011.63 66H1017.5L1017.49 65.7539L1017.47 65.5005C1017.47 65.4527 1017.46 65.402 1017.46 65.3487C1017.41 64.8075 1017.32 64.1959 1017.17 63.5275C1016.77 61.6127 1016.04 59.6338 1014.92 57.6991C1013.79 55.7492 1012.67 54.246 1011.62 53.1336C1011.26 52.7489 1010.93 52.441 1010.64 52.2031L1010.47 52.0642L1010.35 51.9765L1010.31 51.9511L1010.86 51.1114L1010.94 51.165L1011.12 51.3018L1011.34 51.4795C1011.5 51.6121 1011.68 51.7729 1011.87 51.9641L1012.18 52.2739C1012.24 52.3294 1012.29 52.3869 1012.35 52.4463C1013.45 53.6156 1014.62 55.1812 1015.79 57.1974C1016.96 59.2288 1017.73 61.3067 1018.15 63.3203C1018.3 64.0269 1018.4 64.6759 1018.45 65.2538L1018.49 65.7049L1018.5 65.9184L1018.5 65.9979L1018 66H1023ZM1012.52 67H1005H1004V73H1005H1006.34H1047.77H1049H1050V67H1049H1044.03H1012.52ZM1044.03 66H1027L1027 65.7104C1027.12 60.3237 1030.51 56 1035.5 56C1040.78 56 1044.03 59.777 1044.03 65V66ZM1006.89 74.3181L1006.75 74H1047.35L1047.25 74.2195L1047.09 74.5584L1046.92 74.8756C1046.12 76.3668 1044.89 78.0022 1043.22 79.4396C1040.59 81.6978 1037.37 83 1033.43 83H1020.57L1020.15 82.9949C1015.92 82.893 1012.56 81.2701 1009.93 78.5962C1008.96 77.6207 1008.17 76.5725 1007.54 75.5279L1007.31 75.1438C1007.28 75.0839 1007.25 75.0261 1007.22 74.9705L1007.05 74.6648C1007.03 74.6186 1007.01 74.5748 1006.99 74.5337L1006.89 74.3181ZM1036 58V59H1035V58H1036ZM1036 61V60H1035V61H1036ZM1036 62V63H1035V62H1036ZM1036 65V64H1035V65H1036ZM1038 63V64H1037V63H1038ZM1040 64V63H1039V64H1040ZM1042 62V63H1041V62H1042ZM1039 62V61H1038V62H1039ZM1040 59V60H1039V59H1040ZM1032 60V59H1031V60H1032ZM1033 61V62H1032V61H1033ZM1034 64V63H1033V64H1034ZM1032 63V64H1031V63H1032ZM1030 63V62H1029V63H1030Z" fill="#212121"/>
</g>
<g clip-path="url(#clip2_878_101543)">
<path fill-rule="evenodd" clip-rule="evenodd" d="M838.5 165C884.063 165 921 128.063 921 82.5C921 36.9365 884.063 0 838.5 0C792.937 0 756 36.9365 756 82.5C756 128.063 792.937 165 838.5 165Z" fill="white"/>
<path d="M816.812 108.171C816.812 110.056 816.299 111.499 815.273 112.499C814.253 113.494 812.781 113.991 810.859 113.991H807.695V102.569H811.195C812.971 102.569 814.352 103.061 815.336 104.046C816.32 105.03 816.812 106.405 816.812 108.171ZM815.406 108.218C815.406 106.728 815.031 105.606 814.281 104.85C813.536 104.095 812.427 103.718 810.953 103.718H809.023V112.843H810.641C812.224 112.843 813.414 112.455 814.211 111.678C815.008 110.897 815.406 109.744 815.406 108.218ZM822.789 114.147C821.523 114.147 820.523 113.762 819.789 112.991C819.06 112.22 818.695 111.15 818.695 109.78C818.695 108.4 819.034 107.303 819.711 106.491C820.393 105.678 821.307 105.272 822.453 105.272C823.526 105.272 824.375 105.626 825 106.335C825.625 107.038 825.938 107.968 825.938 109.124V109.944H820.039C820.065 110.949 820.318 111.712 820.797 112.233C821.281 112.754 821.961 113.014 822.836 113.014C823.758 113.014 824.669 112.822 825.57 112.436V113.593C825.112 113.79 824.677 113.931 824.266 114.014C823.859 114.103 823.367 114.147 822.789 114.147ZM822.438 106.358C821.75 106.358 821.201 106.582 820.789 107.03C820.383 107.478 820.143 108.098 820.07 108.889H824.547C824.547 108.072 824.365 107.447 824 107.014C823.635 106.577 823.115 106.358 822.438 106.358ZM833.68 111.655C833.68 112.452 833.383 113.066 832.789 113.499C832.195 113.931 831.362 114.147 830.289 114.147C829.154 114.147 828.268 113.968 827.633 113.608V112.405C828.044 112.613 828.484 112.777 828.953 112.897C829.427 113.017 829.883 113.077 830.32 113.077C830.997 113.077 831.518 112.97 831.883 112.757C832.247 112.538 832.43 112.207 832.43 111.764C832.43 111.431 832.284 111.147 831.992 110.913C831.706 110.673 831.143 110.392 830.305 110.069C829.508 109.772 828.94 109.514 828.602 109.296C828.268 109.072 828.018 108.819 827.852 108.538C827.69 108.257 827.609 107.921 827.609 107.53C827.609 106.832 827.893 106.283 828.461 105.882C829.029 105.475 829.807 105.272 830.797 105.272C831.719 105.272 832.62 105.46 833.5 105.835L833.039 106.889C832.18 106.535 831.401 106.358 830.703 106.358C830.089 106.358 829.625 106.455 829.312 106.647C829 106.84 828.844 107.106 828.844 107.444C828.844 107.673 828.901 107.869 829.016 108.03C829.135 108.191 829.326 108.345 829.586 108.491C829.846 108.637 830.346 108.848 831.086 109.124C832.102 109.494 832.786 109.866 833.141 110.241C833.5 110.616 833.68 111.087 833.68 111.655ZM841.32 111.655C841.32 112.452 841.023 113.066 840.43 113.499C839.836 113.931 839.003 114.147 837.93 114.147C836.794 114.147 835.909 113.968 835.273 113.608V112.405C835.685 112.613 836.125 112.777 836.594 112.897C837.068 113.017 837.523 113.077 837.961 113.077C838.638 113.077 839.159 112.97 839.523 112.757C839.888 112.538 840.07 112.207 840.07 111.764C840.07 111.431 839.924 111.147 839.633 110.913C839.346 110.673 838.784 110.392 837.945 110.069C837.148 109.772 836.581 109.514 836.242 109.296C835.909 109.072 835.659 108.819 835.492 108.538C835.331 108.257 835.25 107.921 835.25 107.53C835.25 106.832 835.534 106.283 836.102 105.882C836.669 105.475 837.448 105.272 838.438 105.272C839.359 105.272 840.26 105.46 841.141 105.835L840.68 106.889C839.82 106.535 839.042 106.358 838.344 106.358C837.729 106.358 837.266 106.455 836.953 106.647C836.641 106.84 836.484 107.106 836.484 107.444C836.484 107.673 836.542 107.869 836.656 108.03C836.776 108.191 836.966 108.345 837.227 108.491C837.487 108.637 837.987 108.848 838.727 109.124C839.742 109.494 840.427 109.866 840.781 110.241C841.141 110.616 841.32 111.087 841.32 111.655ZM847.055 114.147C845.789 114.147 844.789 113.762 844.055 112.991C843.326 112.22 842.961 111.15 842.961 109.78C842.961 108.4 843.299 107.303 843.977 106.491C844.659 105.678 845.573 105.272 846.719 105.272C847.792 105.272 848.641 105.626 849.266 106.335C849.891 107.038 850.203 107.968 850.203 109.124V109.944H844.305C844.331 110.949 844.583 111.712 845.062 112.233C845.547 112.754 846.227 113.014 847.102 113.014C848.023 113.014 848.935 112.822 849.836 112.436V113.593C849.378 113.79 848.943 113.931 848.531 114.014C848.125 114.103 847.633 114.147 847.055 114.147ZM846.703 106.358C846.016 106.358 845.466 106.582 845.055 107.03C844.648 107.478 844.409 108.098 844.336 108.889H848.812C848.812 108.072 848.63 107.447 848.266 107.014C847.901 106.577 847.38 106.358 846.703 106.358ZM856.328 105.272C856.708 105.272 857.049 105.303 857.352 105.366L857.172 106.569C856.818 106.491 856.505 106.452 856.234 106.452C855.542 106.452 854.948 106.733 854.453 107.296C853.964 107.858 853.719 108.559 853.719 109.397V113.991H852.422V105.428H853.492L853.641 107.014H853.703C854.021 106.457 854.404 106.027 854.852 105.725C855.299 105.423 855.792 105.272 856.328 105.272ZM861.719 113.077C861.948 113.077 862.169 113.061 862.383 113.03C862.596 112.994 862.766 112.957 862.891 112.921V113.913C862.75 113.981 862.542 114.035 862.266 114.077C861.995 114.124 861.75 114.147 861.531 114.147C859.875 114.147 859.047 113.275 859.047 111.53V106.436H857.82V105.811L859.047 105.272L859.594 103.444H860.344V105.428H862.828V106.436H860.344V111.475C860.344 111.991 860.466 112.387 860.711 112.663C860.956 112.939 861.292 113.077 861.719 113.077ZM870.133 111.655C870.133 112.452 869.836 113.066 869.242 113.499C868.648 113.931 867.815 114.147 866.742 114.147C865.607 114.147 864.721 113.968 864.086 113.608V112.405C864.497 112.613 864.938 112.777 865.406 112.897C865.88 113.017 866.336 113.077 866.773 113.077C867.451 113.077 867.971 112.97 868.336 112.757C868.701 112.538 868.883 112.207 868.883 111.764C868.883 111.431 868.737 111.147 868.445 110.913C868.159 110.673 867.596 110.392 866.758 110.069C865.961 109.772 865.393 109.514 865.055 109.296C864.721 109.072 864.471 108.819 864.305 108.538C864.143 108.257 864.062 107.921 864.062 107.53C864.062 106.832 864.346 106.283 864.914 105.882C865.482 105.475 866.26 105.272 867.25 105.272C868.172 105.272 869.073 105.46 869.953 105.835L869.492 106.889C868.633 106.535 867.854 106.358 867.156 106.358C866.542 106.358 866.078 106.455 865.766 106.647C865.453 106.84 865.297 107.106 865.297 107.444C865.297 107.673 865.354 107.869 865.469 108.03C865.589 108.191 865.779 108.345 866.039 108.491C866.299 108.637 866.799 108.848 867.539 109.124C868.555 109.494 869.24 109.866 869.594 110.241C869.953 110.616 870.133 111.087 870.133 111.655Z" fill="#212121"/>
<path fill-rule="evenodd" clip-rule="evenodd" d="M847.594 44L847.443 44.4065L847.301 44.8116L847.131 45.3234L847.009 45.7135L846.822 46.357L846.7 46.816L846.585 47.2917C846.437 47.9346 846.317 48.6061 846.265 49.241C846.605 49.0651 846.803 49.0061 846.962 49.0061C847.036 49.0061 847.101 49.0186 847.168 49.0378L847.469 49.1371C847.617 49.182 847.808 49.2242 848.086 49.237L848.265 49.241C849.849 49.241 851.317 49.7356 852.516 50.5767C852.681 50.4361 852.85 50.2973 853.024 50.1607C855.089 48.5341 857.325 47.5234 859.665 47.4348L860 47.4285V48.4285C857.795 48.4285 855.646 49.3691 853.643 50.9463C853.529 51.0359 853.417 51.1264 853.307 51.2179C854.718 52.5335 855.598 54.3953 855.598 56.4598C855.598 58.6962 854.565 60.6952 852.942 62.0195C853.664 62.376 853.9 63.1327 853.928 63.8403L853.931 63.991H858.992C858.992 68.3354 854.265 75.491 846.265 78.116C844.544 78.116 843.685 78.8964 843.292 79.4503L843.187 79.6087C843.172 79.6336 843.158 79.6577 843.145 79.6808L843.078 79.8075L843 79.991H845.959C847.739 79.991 849.835 80.8378 849.973 82.5315L849.98 82.7098V85.991H825.931V82.7098C825.931 80.9576 827.948 80.0524 829.746 79.994L829.931 79.991H832.931L832.922 79.8749L832.907 79.7737L832.878 79.6487L832.834 79.5049L832.77 79.3473C832.521 78.8047 831.887 78.116 830.271 78.116C822.402 75.534 817.174 68.3961 817.004 64.1984L817 63.991H822.016L821.753 63.2735L821.65 62.9792C821.306 61.9426 821.149 60.8396 822.265 59.741C823.677 58.3503 825.09 57.6963 826.106 57.3889L826.414 57.3028C826.463 57.2903 826.51 57.2785 826.557 57.2676L826.819 57.211L827.048 57.1706L827.223 57.1459L827.416 57.1258L827.598 57.116L827.505 56.8183L827.41 56.4803L827.339 56.2003L827.265 55.8847L827.193 55.5399C827.181 55.4804 827.17 55.42 827.159 55.3588L827.098 54.9832C826.931 53.8348 826.931 52.5223 827.598 51.866C829.517 49.9773 831.342 49.4759 832.925 49.4759C833.761 49.4759 834.53 49.6154 835.21 49.7642L836.034 49.9504C836.462 50.0453 836.841 50.1164 837.162 50.1164C837.671 50.1164 838.037 49.9375 838.222 49.3866L838.265 49.241C838.996 46.3624 841.831 45.0622 844.244 44.4749L844.705 44.3698C844.78 44.3538 844.855 44.3383 844.93 44.3236L845.367 44.2427C845.439 44.2304 845.509 44.2188 845.578 44.2077L845.983 44.1477L846.361 44.1L846.869 44.0483L847.162 44.025L847.594 44ZM851.843 52.5899C852.922 53.5459 853.598 54.9272 853.598 56.4598C853.598 57.5041 853.283 58.4974 852.716 59.3364C851.801 60.3523 850.475 60.991 849 60.991C846.239 60.991 844 58.752 844 55.991C844 53.7264 845.506 51.8131 847.571 51.1982C847.786 51.2266 848.014 51.241 848.265 51.241L848.485 51.2454C849.415 51.2823 850.283 51.5518 851.029 51.9956L851.009 52.0174L850.718 52.3385C850.627 52.4412 850.543 52.5394 850.465 52.6326L850.399 52.7118L850.269 52.8755L851.064 53.4815L851.113 53.419L851.242 53.2613L851.411 53.0632L851.741 52.6989C851.775 52.6626 851.809 52.6262 851.843 52.5899ZM844.01 52.6592C843.372 53.6124 843 54.7583 843 55.991C843 59.3043 845.687 61.991 849 61.991C849.304 61.991 849.603 61.9684 849.895 61.9247L849.269 62.4359L851.911 63.74L851.923 63.8181C851.928 63.868 851.931 63.9263 851.931 63.991V64.991H824.489L823.902 63.3261L823.648 62.6317L823.541 62.3265C823.526 62.2806 823.512 62.2372 823.499 62.1959L823.437 61.9731C823.35 61.6068 823.406 61.4578 823.574 61.2649L823.668 61.1663C824.934 59.9202 826.229 59.3237 827.358 59.1464L827.554 59.1209L827.629 59.1157L829.274 59.0883L830.895 60.794L831.216 61.1204L831.47 61.3649L831.563 61.447C832.83 62.5054 834.101 62.546 836.221 61.5021L835.779 60.6049L835.551 60.7148C833.914 61.4831 833.098 61.4258 832.204 60.6794C832.157 60.6408 832.093 60.581 832.015 60.5049L831.743 60.2321L831.412 59.8903L830.223 58.6331L829.492 56.4745L829.437 56.2991L829.329 55.9143L829.249 55.5901C829.13 55.0812 829.047 54.5854 829.017 54.1459C828.994 53.7993 829.006 53.5128 829.046 53.3142L829.055 53.2572C829.055 53.2475 829.05 53.2473 829.036 53.257L829.223 53.0793C830.476 51.9202 831.646 51.4759 832.925 51.4759C833.511 51.4759 834.077 51.5596 834.917 51.7478L835.956 51.9781C836.411 52.0683 836.785 52.1164 837.162 52.1164C838.653 52.1164 839.816 51.2669 840.204 49.7306L840.26 49.5367C840.755 48.0076 842.385 46.9919 844.49 46.4505L844.745 46.387L844.642 46.8128C844.459 47.6049 844.33 48.364 844.271 49.0762L843.974 52.6778L844.01 52.6592ZM851.931 65.991L852 65.991L856.658 65.991L856.625 66.0999C855.4 69.8577 851.228 74.251 845.985 76.0988L845.905 76.125L845.647 76.1417C844.242 76.2609 843.093 76.7896 842.239 77.6185C841.614 78.2256 841.262 78.8589 841.095 79.3833L840.582 80.991H835V81.991H840.263H841H845.959L846.155 81.9953C847.245 82.0438 847.98 82.4859 847.98 82.7098L847.979 83.991H827.931L827.931 82.7098L827.934 82.6813C827.949 82.6133 828.022 82.5316 828.255 82.3943C828.674 82.148 829.313 81.991 829.931 81.991H834.925L834.931 79.9974L834.927 79.8244C834.898 79.2451 834.71 78.5717 834.233 77.8979L834.101 77.722C833.372 76.8061 832.252 76.2495 830.821 76.1372L830.632 76.126L830.192 75.9677C825.142 74.0595 820.865 69.7369 819.476 66.2003L819.397 65.991L824 65.991L824.842 65.991H851.931Z" fill="#212121"/>
</g>
<g clip-path="url(#clip3_878_101543)">
<path fill-rule="evenodd" clip-rule="evenodd" d="M649.5 165C695.063 165 732 128.063 732 82.5C732 36.9365 695.063 0 649.5 0C603.937 0 567 36.9365 567 82.5C567 128.063 603.937 165 649.5 165Z" fill="white"/>
<path d="M627.359 109V97.5781H628.688V107.797H633.727V109H627.359ZM636.695 100.438V105.992C636.695 106.69 636.854 107.211 637.172 107.555C637.49 107.898 637.987 108.07 638.664 108.07C639.56 108.07 640.214 107.826 640.625 107.336C641.042 106.846 641.25 106.047 641.25 104.938V100.438H642.547V109H641.477L641.289 107.852H641.219C640.953 108.273 640.583 108.596 640.109 108.82C639.641 109.044 639.104 109.156 638.5 109.156C637.458 109.156 636.677 108.909 636.156 108.414C635.641 107.919 635.383 107.128 635.383 106.039V100.438H636.695ZM651.164 109V103.461C651.164 102.763 651.005 102.242 650.688 101.898C650.37 101.555 649.872 101.383 649.195 101.383C648.299 101.383 647.643 101.625 647.227 102.109C646.81 102.594 646.602 103.393 646.602 104.508V109H645.305V100.438H646.359L646.57 101.609H646.633C646.898 101.188 647.271 100.862 647.75 100.633C648.229 100.398 648.763 100.281 649.352 100.281C650.383 100.281 651.159 100.531 651.68 101.031C652.201 101.526 652.461 102.32 652.461 103.414V109H651.164ZM658.555 109.156C657.315 109.156 656.354 108.776 655.672 108.016C654.995 107.25 654.656 106.169 654.656 104.773C654.656 103.341 655 102.234 655.688 101.453C656.38 100.672 657.365 100.281 658.641 100.281C659.052 100.281 659.464 100.326 659.875 100.414C660.286 100.503 660.609 100.607 660.844 100.727L660.445 101.828C660.159 101.714 659.846 101.62 659.508 101.547C659.169 101.469 658.87 101.43 658.609 101.43C656.87 101.43 656 102.539 656 104.758C656 105.81 656.211 106.617 656.633 107.18C657.06 107.742 657.69 108.023 658.523 108.023C659.237 108.023 659.969 107.87 660.719 107.562V108.711C660.146 109.008 659.424 109.156 658.555 109.156ZM668.617 109V103.461C668.617 102.763 668.458 102.242 668.141 101.898C667.823 101.555 667.326 101.383 666.648 101.383C665.747 101.383 665.089 101.628 664.672 102.117C664.26 102.607 664.055 103.409 664.055 104.523V109H662.758V96.8438H664.055V100.523C664.055 100.966 664.034 101.333 663.992 101.625H664.07C664.326 101.214 664.688 100.891 665.156 100.656C665.63 100.417 666.169 100.297 666.773 100.297C667.82 100.297 668.604 100.547 669.125 101.047C669.651 101.542 669.914 102.331 669.914 103.414V109H668.617Z" fill="#212121"/>
<path fill-rule="evenodd" clip-rule="evenodd" d="M647.594 47C651.327 47 654.381 49.9311 654.611 53.6336C654.77 53.6187 654.931 53.6111 655.094 53.6111C657.085 53.6111 658.813 54.7486 659.672 56.4138C660.503 55.8374 661.509 55.5 662.594 55.5C665.441 55.5 667.75 57.8256 667.75 60.6944C667.75 60.8616 667.742 61.0269 667.727 61.19C667.889 61.1746 668.053 61.1667 668.219 61.1667C671.066 61.1667 673.375 63.4923 673.375 66.3611C673.375 66.8522 673.18 67.5497 673.053 68H679V75H674V77C674 79.0822 672.637 81 670.569 81H627.431C625.372 81 624 79.3086 624 77.2222V75H619V68H625C625 65.9978 625.862 64.0644 627.608 63.3775C627.497 62.9745 627.438 62.5498 627.438 62.1111C627.438 59.5031 629.536 57.3889 632.125 57.3889C632.451 57.3889 632.769 57.4224 633.076 57.4861C633.267 54.7923 635.496 52.6667 638.219 52.6667C639.082 52.6667 639.895 52.8802 640.61 53.2577C641.016 49.7347 643.988 47 647.594 47ZM643 54C643 51.3067 645.129 49.1108 647.796 49.0041C650.361 49.1071 652.453 51.1568 652.615 53.7577L652.731 55.6224C652.057 57.5875 650.194 59 648 59C645.239 59 643 56.7614 643 54ZM642.262 56.3922L642.316 55.9254C643.118 58.2947 645.36 60 648 60C648.505 60 648.996 59.9375 649.465 59.8198C649.717 62.2798 651.666 64.2342 654.114 64.475C652.941 64.6164 651.915 65.2387 651.236 66.1402C650.985 62.9855 648.434 60.5 645.316 60.5C643.158 60.5 641.272 61.6902 640.231 63.4688C640.026 62.9032 639.713 62.3948 639.319 61.9652C641.115 61.4778 642.438 59.825 642.438 57.8611C642.438 57.3242 642.339 56.8105 642.158 56.3375L642.262 56.3922ZM639.497 67.8276C639.107 68.3089 638.617 68.7108 638.055 69H639.856C639.7 68.6189 639.578 68.2256 639.497 67.8276ZM640.953 69H649.81C650.099 68.3217 650.257 67.4938 650.257 66.6523C650.257 63.8026 648.04 61.5 645.316 61.5C642.591 61.5 640.375 63.8026 640.375 66.6523C640.375 67.4409 640.583 68.2542 640.953 69ZM650.88 69H658.7C658.662 68.9095 658.629 68.8167 658.601 68.7222H657.875C657.875 66.9111 656.419 65.4444 654.625 65.4444C652.893 65.4444 651.476 66.8117 651.38 68.5361L651.375 68.7222H650.969C650.941 68.8162 650.912 68.9088 650.88 69ZM658.617 67.2512C658.077 65.768 656.745 64.669 655.136 64.475C656.607 64.3303 657.898 63.5666 658.749 62.4462C659.411 63.9195 660.884 64.9444 662.594 64.9444C663.001 64.9444 663.396 64.8862 663.769 64.7775C663.595 65.2728 663.5 65.8059 663.5 66.3611C663.5 67.3175 663.782 68.2299 664.294 69H663.254L663.292 68.9226C663.433 68.611 663.5 68.338 663.5 68.0133C663.5 66.626 662.381 65.5 661 65.5C659.883 65.5 658.938 66.2361 658.617 67.2512ZM664.5 66.3611C664.5 65.1367 665.082 64.0498 665.981 63.3655L667.917 63.181L668.067 63.1703L668.219 63.1667C669.959 63.1667 671.375 64.5936 671.375 66.3611C671.375 66.4239 671.359 66.5303 671.327 66.6814L671.266 66.9416L671.18 67.2697L670.695 69H665.513L665.546 68.9682L665.397 68.8038C664.823 68.1305 664.5 67.2721 664.5 66.3611ZM660.306 58.4083L660.812 58.0569L660.989 57.9426C661.47 57.6544 662.019 57.5 662.594 57.5C664.334 57.5 665.75 58.9269 665.75 60.6944C665.75 60.7982 665.745 60.9011 665.736 61.0029L665.676 61.6324C665.278 62.9709 664.047 63.9444 662.594 63.9444C661.01 63.9444 659.691 62.7883 659.424 61.2637C659.674 60.6515 659.812 59.9808 659.812 59.2778C659.812 59.2064 659.811 59.1354 659.808 59.0647C659.946 58.8247 660.114 58.6042 660.306 58.4083ZM658.738 58.9664L657.895 57.3306C657.353 56.2804 656.282 55.6111 655.094 55.6111L654.945 55.6146L654.797 55.6249L653.749 55.7229C653.246 57.4043 652.025 58.7759 650.442 59.4821C650.548 61.7198 652.381 63.5 654.625 63.5C656.283 63.5 657.717 62.5276 658.396 61.1167C658.382 60.9778 658.375 60.8369 658.375 60.6944C658.375 60.0791 658.505 59.4943 658.738 58.9664ZM659.256 69H662.975L662.309 68.6563C662.447 68.3889 662.5 68.2183 662.5 68.0133C662.5 67.1768 661.828 66.5 661 66.5C660.172 66.5 659.5 67.1768 659.5 68.0133C659.5 68.2249 659.543 68.4294 659.624 68.6177L659.693 68.7558L659.256 69ZM633.457 68.7283C633.604 68.8276 633.758 68.9184 633.916 69H633.386C633.413 68.9103 633.436 68.8197 633.457 68.7283ZM632.559 67.9314C632.171 67.4818 631.869 66.9524 631.682 66.3659C631.629 66.3602 631.576 66.3535 631.523 66.3458L631.313 66.3102L631.501 65.3541C631.088 64.9749 630.578 64.7015 630.013 64.5764L630.014 64.5801L628.34 65.2386C627.599 65.5303 627.062 66.4823 627.005 67.7694L627 68V69H632.329C632.464 68.6622 632.542 68.3023 632.559 67.9314ZM636.413 68.4735C635.325 68.6067 634.291 68.2289 633.555 67.5292C633.529 67.0734 633.433 66.6367 633.276 66.2301C634.772 65.8053 635.981 64.5669 636.297 62.9267C636.379 62.5033 636.395 62.0824 636.354 61.6744C636.842 61.9173 637.384 62.0677 637.957 62.1031C638.767 62.6504 639.345 63.5302 639.473 64.5737C639.71 66.4915 638.34 68.2378 636.413 68.4735ZM635.864 60.0764C636.014 60.2391 636.18 60.3863 636.361 60.5151C637.041 60.5711 637.686 60.78 638.256 61.1109C640.015 61.0908 641.438 59.6451 641.438 57.8611C641.438 56.8261 640.959 55.9051 640.213 55.3101L639.676 55.0262C639.23 54.7909 638.735 54.6667 638.219 54.6667C636.623 54.6667 635.287 55.8715 635.088 57.4504L635.071 57.6274L635.025 58.27C635.071 58.6389 635.178 58.9885 635.336 59.3081C635.539 59.5442 635.716 59.8019 635.864 60.0764ZM634.504 59.8781C634.653 60.1545 634.83 60.4124 635.033 60.6477C635.342 61.2715 635.458 61.9994 635.315 62.7372C635.058 64.0715 634.032 65.0574 632.791 65.3201C632.096 64.3251 630.991 63.6416 629.722 63.5196L629.536 62.846L629.493 62.6671C629.456 62.4864 629.438 62.3006 629.438 62.1111C629.438 60.6044 630.644 59.3889 632.125 59.3889C632.31 59.3889 632.492 59.4076 632.669 59.4443L634.442 59.8123C634.463 59.8339 634.484 59.8559 634.504 59.8781ZM673 70H670.415H627H623H621V73H623H626H672H673H677V70H673ZM626 77.2222V74H672V77L671.995 77.1738C671.933 78.2571 671.295 79 670.569 79H627.431L627.294 78.9938C626.531 78.9234 626 78.2611 626 77.2222Z" fill="#212121"/>
</g>
<g clip-path="url(#clip4_878_101543)">
<path fill-rule="evenodd" clip-rule="evenodd" d="M460.5 165C506.063 165 543 128.063 543 82.5C543 36.9365 506.063 0 460.5 0C414.937 0 378 36.9365 378 82.5C378 128.063 414.937 165 460.5 165Z" fill="white"/>
<path d="M430.766 111L426.891 100.875H426.828C426.901 101.677 426.938 102.63 426.938 103.734V111H425.711V99.5781H427.711L431.328 109H431.391L435.039 99.5781H437.023V111H435.695V103.641C435.695 102.797 435.732 101.88 435.805 100.891H435.742L431.836 111H430.766ZM445.234 111L444.977 109.781H444.914C444.487 110.318 444.06 110.682 443.633 110.875C443.211 111.062 442.682 111.156 442.047 111.156C441.198 111.156 440.531 110.938 440.047 110.5C439.568 110.062 439.328 109.44 439.328 108.633C439.328 106.904 440.711 105.997 443.477 105.914L444.93 105.867V105.336C444.93 104.664 444.784 104.169 444.492 103.852C444.206 103.529 443.745 103.367 443.109 103.367C442.396 103.367 441.589 103.586 440.688 104.023L440.289 103.031C440.711 102.802 441.172 102.622 441.672 102.492C442.177 102.362 442.682 102.297 443.188 102.297C444.208 102.297 444.964 102.523 445.453 102.977C445.948 103.43 446.195 104.156 446.195 105.156V111H445.234ZM442.305 110.086C443.112 110.086 443.745 109.865 444.203 109.422C444.667 108.979 444.898 108.359 444.898 107.562V106.789L443.602 106.844C442.57 106.88 441.826 107.042 441.367 107.328C440.914 107.609 440.688 108.049 440.688 108.648C440.688 109.117 440.828 109.474 441.109 109.719C441.396 109.964 441.794 110.086 442.305 110.086ZM450.172 111H448.875V102.438H450.172V111ZM448.766 100.117C448.766 99.8203 448.839 99.6042 448.984 99.4688C449.13 99.3281 449.312 99.2578 449.531 99.2578C449.74 99.2578 449.919 99.3281 450.07 99.4688C450.221 99.6094 450.297 99.8255 450.297 100.117C450.297 100.409 450.221 100.628 450.07 100.773C449.919 100.914 449.74 100.984 449.531 100.984C449.312 100.984 449.13 100.914 448.984 100.773C448.839 100.628 448.766 100.409 448.766 100.117ZM458.781 111V105.461C458.781 104.763 458.622 104.242 458.305 103.898C457.987 103.555 457.49 103.383 456.812 103.383C455.917 103.383 455.26 103.625 454.844 104.109C454.427 104.594 454.219 105.393 454.219 106.508V111H452.922V102.438H453.977L454.188 103.609H454.25C454.516 103.188 454.888 102.862 455.367 102.633C455.846 102.398 456.38 102.281 456.969 102.281C458 102.281 458.776 102.531 459.297 103.031C459.818 103.526 460.078 104.32 460.078 105.414V111H458.781ZM472.734 109.852H472.664C472.065 110.721 471.169 111.156 469.977 111.156C468.857 111.156 467.984 110.773 467.359 110.008C466.74 109.242 466.43 108.154 466.43 106.742C466.43 105.331 466.742 104.234 467.367 103.453C467.992 102.672 468.862 102.281 469.977 102.281C471.138 102.281 472.029 102.703 472.648 103.547H472.75L472.695 102.93L472.664 102.328V98.8438H473.961V111H472.906L472.734 109.852ZM470.141 110.07C471.026 110.07 471.667 109.831 472.062 109.352C472.464 108.867 472.664 108.089 472.664 107.016V106.742C472.664 105.529 472.461 104.664 472.055 104.148C471.654 103.628 471.01 103.367 470.125 103.367C469.365 103.367 468.781 103.664 468.375 104.258C467.974 104.846 467.773 105.68 467.773 106.758C467.773 107.852 467.974 108.677 468.375 109.234C468.776 109.792 469.365 110.07 470.141 110.07ZM478.016 111H476.719V102.438H478.016V111ZM476.609 100.117C476.609 99.8203 476.682 99.6042 476.828 99.4688C476.974 99.3281 477.156 99.2578 477.375 99.2578C477.583 99.2578 477.763 99.3281 477.914 99.4688C478.065 99.6094 478.141 99.8255 478.141 100.117C478.141 100.409 478.065 100.628 477.914 100.773C477.763 100.914 477.583 100.984 477.375 100.984C477.156 100.984 476.974 100.914 476.828 100.773C476.682 100.628 476.609 100.409 476.609 100.117ZM486.289 108.664C486.289 109.461 485.992 110.076 485.398 110.508C484.805 110.94 483.971 111.156 482.898 111.156C481.763 111.156 480.878 110.977 480.242 110.617V109.414C480.654 109.622 481.094 109.786 481.562 109.906C482.036 110.026 482.492 110.086 482.93 110.086C483.607 110.086 484.128 109.979 484.492 109.766C484.857 109.547 485.039 109.216 485.039 108.773C485.039 108.44 484.893 108.156 484.602 107.922C484.315 107.682 483.753 107.401 482.914 107.078C482.117 106.781 481.549 106.523 481.211 106.305C480.878 106.081 480.628 105.828 480.461 105.547C480.299 105.266 480.219 104.93 480.219 104.539C480.219 103.841 480.503 103.292 481.07 102.891C481.638 102.484 482.417 102.281 483.406 102.281C484.328 102.281 485.229 102.469 486.109 102.844L485.648 103.898C484.789 103.544 484.01 103.367 483.312 103.367C482.698 103.367 482.234 103.464 481.922 103.656C481.609 103.849 481.453 104.115 481.453 104.453C481.453 104.682 481.51 104.878 481.625 105.039C481.745 105.201 481.935 105.354 482.195 105.5C482.456 105.646 482.956 105.857 483.695 106.133C484.711 106.503 485.396 106.875 485.75 107.25C486.109 107.625 486.289 108.096 486.289 108.664ZM494.266 111V105.461C494.266 104.763 494.107 104.242 493.789 103.898C493.471 103.555 492.974 103.383 492.297 103.383C491.396 103.383 490.737 103.628 490.32 104.117C489.909 104.607 489.703 105.409 489.703 106.523V111H488.406V98.8438H489.703V102.523C489.703 102.966 489.682 103.333 489.641 103.625H489.719C489.974 103.214 490.336 102.891 490.805 102.656C491.279 102.417 491.818 102.297 492.422 102.297C493.469 102.297 494.253 102.547 494.773 103.047C495.299 103.542 495.562 104.331 495.562 105.414V111H494.266Z" fill="#212121"/>
<path fill-rule="evenodd" clip-rule="evenodd" d="M485.955 48C485.955 46.3431 484.53 45 482.773 45C481.015 45 479.591 46.3431 479.591 48C479.591 49.5083 480.771 50.7566 482.309 50.9684L479.14 54.4866C476.418 53.2923 471.955 54.3954 468.494 56.7182C465.099 54.4183 460.449 53 455.318 53C452.261 53 449.375 53.5035 446.823 54.397L446.217 54.6188C440.423 56.8348 436.5 61.1009 436.5 66C436.5 68.1645 437.266 70.2055 438.62 72.0007L430.5 72V80H433.5V82.0019L433.505 82.151C433.582 83.1849 434.445 84 435.501 84H479.499L479.648 83.9946C480.684 83.9189 481.5 83.0628 481.5 82.0019V80H484.5V72L475.235 72.0004C476.576 70.4253 477.82 68.7894 478.548 67.5103C478.581 67.4529 478.614 67.3943 478.647 67.3345L478.851 66.9631L479.06 66.5669L479.273 66.1483L479.487 65.7093L479.7 65.2521C479.736 65.1746 479.771 65.0963 479.806 65.0175L480.015 64.5374C480.05 64.4562 480.084 64.3746 480.118 64.2925L480.317 63.7943C480.35 63.7105 480.382 63.6262 480.414 63.5416L480.6 63.0304L480.774 62.5133C481.166 61.2989 481.445 60.0539 481.493 58.9056C481.498 58.7974 481.5 58.6903 481.5 58.5844C481.503 57.7817 481.383 57.0339 481.099 56.3868L483.468 53.7558C483.993 55.0684 485.315 56 486.864 56C488.872 56 490.5 54.433 490.5 52.5C490.5 50.567 488.872 49 486.864 49C486.454 49 486.061 49.065 485.696 49.1861C485.862 48.8223 485.955 48.4213 485.955 48ZM479.5 78H482.499V73.999L482.448 73.999L471.411 74.001L471.411 74.0006L470.906 74.0007L470.906 74H460.043L460.043 74.0007L442.634 73.9996L442.635 74.001L432.527 73.999L432.5 73.999V78H435.5H479.5ZM473.712 70.7041L471.758 73H459.753L459.673 72.7226L459.623 72.5313C459.237 70.9231 459.753 68.9655 461.334 66.4465C462.44 64.6857 464.948 62.4299 467.566 60.4952C467.742 60.3653 467.92 60.237 468.099 60.1106L468.64 59.7367L469.189 59.3745C469.281 59.3152 469.373 59.2564 469.466 59.1982L470.022 58.8556C470.115 58.7997 470.208 58.7443 470.301 58.6896L470.862 58.3688L471.422 58.0638C471.609 57.9649 471.795 57.8689 471.981 57.7757L472.537 57.5055C474.25 56.6976 475.892 56.1614 477.227 56.0333C477.905 56.1107 478.467 56.3088 478.857 56.632C480.277 57.8083 479.237 62.255 476.81 66.5211C476.281 67.4499 475.375 68.6972 474.248 70.065L473.712 70.7041ZM460.487 65.9149C458.673 68.806 458.156 71.0784 458.712 73H458.636V73.0006L441.88 73.0002L440.217 70.796L440.011 70.5131C439.013 69.0911 438.5 67.5633 438.5 66C438.5 60.1162 445.906 55 455.318 55C459.924 55 464.219 56.2374 467.372 58.374L468.129 58.8867L468.022 58.9566L467.641 59.2148L467.127 59.5777L466.783 59.8315L466.115 60.341L465.602 60.7457C465.513 60.817 465.422 60.8902 465.329 60.9652L464.761 61.4344C463.21 62.7353 461.432 64.4102 460.487 65.9149ZM435.5 79H479.5V81.999L479.426 82.0013L435.501 82L435.499 81.9284L435.5 79Z" fill="#212121"/>
</g>
<g clip-path="url(#clip5_878_101543)">
<path fill-rule="evenodd" clip-rule="evenodd" d="M271.5 165C317.063 165 354 128.063 354 82.5C354 36.9365 317.063 0 271.5 0C225.937 0 189 36.9365 189 82.5C189 128.063 225.937 165 271.5 165Z" fill="white"/>
<path d="M257.148 109.961C257.148 110.966 256.784 111.75 256.055 112.312C255.326 112.875 254.336 113.156 253.086 113.156C251.732 113.156 250.69 112.982 249.961 112.633V111.352C250.43 111.549 250.94 111.706 251.492 111.82C252.044 111.935 252.591 111.992 253.133 111.992C254.018 111.992 254.685 111.826 255.133 111.492C255.581 111.154 255.805 110.685 255.805 110.086C255.805 109.69 255.724 109.367 255.562 109.117C255.406 108.862 255.141 108.628 254.766 108.414C254.396 108.201 253.831 107.958 253.07 107.688C252.008 107.307 251.247 106.857 250.789 106.336C250.336 105.815 250.109 105.135 250.109 104.297C250.109 103.417 250.44 102.716 251.102 102.195C251.763 101.674 252.638 101.414 253.727 101.414C254.862 101.414 255.906 101.622 256.859 102.039L256.445 103.195C255.503 102.799 254.586 102.602 253.695 102.602C252.992 102.602 252.443 102.753 252.047 103.055C251.651 103.357 251.453 103.776 251.453 104.312C251.453 104.708 251.526 105.034 251.672 105.289C251.818 105.539 252.062 105.771 252.406 105.984C252.755 106.193 253.286 106.424 254 106.68C255.198 107.107 256.021 107.565 256.469 108.055C256.922 108.544 257.148 109.18 257.148 109.961ZM266.68 108.711C266.68 110.107 266.328 111.198 265.625 111.984C264.922 112.766 263.951 113.156 262.711 113.156C261.945 113.156 261.266 112.977 260.672 112.617C260.078 112.258 259.62 111.742 259.297 111.07C258.974 110.398 258.812 109.612 258.812 108.711C258.812 107.315 259.161 106.229 259.859 105.453C260.557 104.672 261.526 104.281 262.766 104.281C263.964 104.281 264.914 104.68 265.617 105.477C266.326 106.273 266.68 107.352 266.68 108.711ZM260.156 108.711C260.156 109.805 260.375 110.638 260.812 111.211C261.25 111.784 261.893 112.07 262.742 112.07C263.591 112.07 264.234 111.786 264.672 111.219C265.115 110.646 265.336 109.81 265.336 108.711C265.336 107.622 265.115 106.797 264.672 106.234C264.234 105.667 263.586 105.383 262.727 105.383C261.878 105.383 261.237 105.661 260.805 106.219C260.372 106.776 260.156 107.607 260.156 108.711ZM270.18 104.438V109.992C270.18 110.69 270.339 111.211 270.656 111.555C270.974 111.898 271.471 112.07 272.148 112.07C273.044 112.07 273.698 111.826 274.109 111.336C274.526 110.846 274.734 110.047 274.734 108.938V104.438H276.031V113H274.961L274.773 111.852H274.703C274.438 112.273 274.068 112.596 273.594 112.82C273.125 113.044 272.589 113.156 271.984 113.156C270.943 113.156 270.161 112.909 269.641 112.414C269.125 111.919 268.867 111.128 268.867 110.039V104.438H270.18ZM282.773 113.156C282.216 113.156 281.706 113.055 281.242 112.852C280.784 112.643 280.398 112.326 280.086 111.898H279.992C280.055 112.398 280.086 112.872 280.086 113.32V116.844H278.789V104.438H279.844L280.023 105.609H280.086C280.419 105.141 280.807 104.802 281.25 104.594C281.693 104.385 282.201 104.281 282.773 104.281C283.909 104.281 284.784 104.669 285.398 105.445C286.018 106.221 286.328 107.31 286.328 108.711C286.328 110.117 286.013 111.211 285.383 111.992C284.758 112.768 283.888 113.156 282.773 113.156ZM282.586 105.383C281.711 105.383 281.078 105.625 280.688 106.109C280.297 106.594 280.096 107.365 280.086 108.422V108.711C280.086 109.914 280.286 110.776 280.688 111.297C281.089 111.812 281.732 112.07 282.617 112.07C283.357 112.07 283.935 111.771 284.352 111.172C284.773 110.573 284.984 109.747 284.984 108.695C284.984 107.628 284.773 106.81 284.352 106.242C283.935 105.669 283.346 105.383 282.586 105.383ZM294.125 110.664C294.125 111.461 293.828 112.076 293.234 112.508C292.641 112.94 291.807 113.156 290.734 113.156C289.599 113.156 288.714 112.977 288.078 112.617V111.414C288.49 111.622 288.93 111.786 289.398 111.906C289.872 112.026 290.328 112.086 290.766 112.086C291.443 112.086 291.964 111.979 292.328 111.766C292.693 111.547 292.875 111.216 292.875 110.773C292.875 110.44 292.729 110.156 292.438 109.922C292.151 109.682 291.589 109.401 290.75 109.078C289.953 108.781 289.385 108.523 289.047 108.305C288.714 108.081 288.464 107.828 288.297 107.547C288.135 107.266 288.055 106.93 288.055 106.539C288.055 105.841 288.339 105.292 288.906 104.891C289.474 104.484 290.253 104.281 291.242 104.281C292.164 104.281 293.065 104.469 293.945 104.844L293.484 105.898C292.625 105.544 291.846 105.367 291.148 105.367C290.534 105.367 290.07 105.464 289.758 105.656C289.445 105.849 289.289 106.115 289.289 106.453C289.289 106.682 289.346 106.878 289.461 107.039C289.581 107.201 289.771 107.354 290.031 107.5C290.292 107.646 290.792 107.857 291.531 108.133C292.547 108.503 293.232 108.875 293.586 109.25C293.945 109.625 294.125 110.096 294.125 110.664Z" fill="#212121"/>
<path fill-rule="evenodd" clip-rule="evenodd" d="M276 48C276 45.2386 273.761 43 271 43C268.239 43 266 45.2386 266 48L266.004 48.1598L265.108 48.2235C264.96 48.2349 264.812 48.2468 264.665 48.2591L263.788 48.3379L262.924 48.4266L262.075 48.5249C261.935 48.542 261.795 48.5596 261.656 48.5776L260.828 48.6899L260.016 48.8115L259.221 48.9419C259.089 48.9644 258.959 48.9872 258.829 49.0104L258.059 49.1539C257.932 49.1785 257.806 49.2035 257.68 49.2288L256.937 49.3849C256.814 49.4115 256.693 49.4386 256.572 49.4659L255.857 49.6341C255.739 49.6628 255.622 49.6918 255.507 49.7211L254.821 49.9009C254.709 49.9315 254.597 49.9625 254.486 49.9937L253.832 50.1847C253.51 50.282 253.196 50.3821 252.891 50.4847L252.291 50.6934C248.47 52.0718 246.114 53.8755 246.004 55.8546L246 56L246 61.0829C243.162 61.5589 241 64.0269 241 67C241 69.9731 243.162 72.4411 246 72.9171L246 80.9981L246.005 81.1979C246.109 83.3152 247.861 85 250.007 85H291.993L292.193 84.9951C294.313 84.891 296 83.1408 296 80.9981L296.001 72.9169C298.838 72.4405 301 69.9727 301 67C301 64.0273 298.838 61.5595 296.001 61.0831L296 56L295.996 55.8495C295.917 54.4802 294.763 53.195 292.792 52.0767L292.341 51.8309L291.864 51.5909C291.128 51.2352 290.306 50.8995 289.407 50.5867L288.797 50.3816C288.589 50.3144 288.379 50.2484 288.164 50.1836L287.51 49.9927L286.835 49.8093C286.15 49.6296 285.434 49.4614 284.691 49.3055L283.939 49.1537C283.812 49.1291 283.684 49.1049 283.556 49.081L282.777 48.942C282.646 48.9195 282.514 48.8974 282.382 48.8757L281.578 48.7498L280.759 48.633L279.924 48.5254C279.784 48.5082 279.643 48.4915 279.501 48.4751L278.645 48.3818C278.357 48.3522 278.067 48.3243 277.775 48.2981L276.893 48.2244L275.997 48.1609L276 48ZM270.704 45.0144C270.801 45.0049 270.9 45 271 45C272.657 45 274 46.3431 274 48L273.994 48.1881C273.897 49.7573 272.594 51 271 51C269.395 51 268.084 49.7395 268.004 48.1545L268 47.9807C268.01 46.4324 269.192 45.1624 270.704 45.0144ZM274.427 50.0633C273.727 51.2239 272.454 52 271 52C269.545 52 268.272 51.2234 267.572 50.0622L266.133 50.1556C260.771 50.5036 255.988 51.4223 252.568 52.7235C249.677 53.824 248.154 55.0558 248.013 55.8292L248.003 55.9103L248 55.9999L248 59H294V61H248L248 62.7754L246.331 63.0554C244.421 63.3757 243 65.0395 243 67C243 68.8929 244.325 70.5092 246.135 70.9067L246.331 70.9446L248 71.2246L247.999 80.949L248.002 81.0995C248.052 82.1094 248.854 82.9195 249.855 82.9944L250.007 83L291.944 83.0006L292.095 82.9975C293.108 82.9478 293.919 82.1473 293.994 81.1491L294 80.9979L294.001 71.2247L295.67 70.9445C297.579 70.6239 299 68.9603 299 67C299 65.1073 297.675 63.4912 295.865 63.0934L295.67 63.0555L294.001 62.7753L294.001 56.0576L293.999 55.9646C293.952 55.1419 292.423 53.8612 289.427 52.722C286.14 51.4717 281.593 50.5752 276.484 50.1993L275.868 50.1567L274.427 50.0633Z" fill="#212121"/>
</g>
<g clip-path="url(#clip6_878_101543)">
<path fill-rule="evenodd" clip-rule="evenodd" d="M82.5 165C128.063 165 165 128.063 165 82.5C165 36.9365 128.063 0 82.5 0C36.9365 0 0 36.9365 0 82.5C0 128.063 36.9365 165 82.5 165Z" fill="white"/>
<path d="M48.6562 103.578H51.8828C53.3984 103.578 54.4948 103.805 55.1719 104.258C55.849 104.711 56.1875 105.427 56.1875 106.406C56.1875 107.083 55.9974 107.643 55.6172 108.086C55.2422 108.523 54.6927 108.807 53.9688 108.938V109.016C55.7031 109.312 56.5703 110.224 56.5703 111.75C56.5703 112.771 56.224 113.568 55.5312 114.141C54.8438 114.714 53.8802 115 52.6406 115H48.6562V103.578ZM49.9844 108.469H52.1719C53.1094 108.469 53.7839 108.323 54.1953 108.031C54.6068 107.734 54.8125 107.237 54.8125 106.539C54.8125 105.898 54.5833 105.438 54.125 105.156C53.6667 104.87 52.9375 104.727 51.9375 104.727H49.9844V108.469ZM49.9844 109.594V113.867H52.3672C53.2891 113.867 53.9818 113.69 54.4453 113.336C54.9141 112.977 55.1484 112.417 55.1484 111.656C55.1484 110.948 54.9089 110.427 54.4297 110.094C53.9557 109.76 53.2318 109.594 52.2578 109.594H49.9844ZM62.7422 106.281C63.1224 106.281 63.4635 106.312 63.7656 106.375L63.5859 107.578C63.2318 107.5 62.9193 107.461 62.6484 107.461C61.9557 107.461 61.362 107.742 60.8672 108.305C60.3776 108.867 60.1328 109.568 60.1328 110.406V115H58.8359V106.438H59.9062L60.0547 108.023H60.1172C60.4349 107.466 60.8177 107.036 61.2656 106.734C61.7135 106.432 62.2057 106.281 62.7422 106.281ZM68.9844 115.156C67.7188 115.156 66.7188 114.771 65.9844 114C65.2552 113.229 64.8906 112.159 64.8906 110.789C64.8906 109.409 65.2292 108.312 65.9062 107.5C66.5885 106.688 67.5026 106.281 68.6484 106.281C69.7214 106.281 70.5703 106.635 71.1953 107.344C71.8203 108.047 72.1328 108.977 72.1328 110.133V110.953H66.2344C66.2604 111.958 66.513 112.721 66.9922 113.242C67.4766 113.763 68.1562 114.023 69.0312 114.023C69.9531 114.023 70.8646 113.831 71.7656 113.445V114.602C71.3073 114.799 70.8724 114.94 70.4609 115.023C70.0547 115.112 69.5625 115.156 68.9844 115.156ZM68.6328 107.367C67.9453 107.367 67.3958 107.591 66.9844 108.039C66.5781 108.487 66.3385 109.107 66.2656 109.898H70.7422C70.7422 109.081 70.5599 108.456 70.1953 108.023C69.8307 107.586 69.3099 107.367 68.6328 107.367ZM79.6172 115L79.3594 113.781H79.2969C78.8698 114.318 78.4427 114.682 78.0156 114.875C77.5938 115.062 77.0651 115.156 76.4297 115.156C75.5807 115.156 74.9141 114.938 74.4297 114.5C73.9505 114.062 73.7109 113.44 73.7109 112.633C73.7109 110.904 75.0938 109.997 77.8594 109.914L79.3125 109.867V109.336C79.3125 108.664 79.1667 108.169 78.875 107.852C78.5885 107.529 78.1276 107.367 77.4922 107.367C76.7786 107.367 75.9714 107.586 75.0703 108.023L74.6719 107.031C75.0938 106.802 75.5547 106.622 76.0547 106.492C76.5599 106.362 77.0651 106.297 77.5703 106.297C78.5911 106.297 79.3464 106.523 79.8359 106.977C80.3307 107.43 80.5781 108.156 80.5781 109.156V115H79.6172ZM76.6875 114.086C77.4948 114.086 78.1276 113.865 78.5859 113.422C79.0495 112.979 79.2812 112.359 79.2812 111.562V110.789L77.9844 110.844C76.9531 110.88 76.2083 111.042 75.75 111.328C75.2969 111.609 75.0703 112.049 75.0703 112.648C75.0703 113.117 75.2109 113.474 75.4922 113.719C75.7786 113.964 76.1771 114.086 76.6875 114.086ZM84.5391 110.617C84.763 110.299 85.1042 109.883 85.5625 109.367L88.3281 106.438H89.8672L86.3984 110.086L90.1094 115H88.5391L85.5156 110.953L84.5391 111.797V115H83.2578V102.844H84.5391V109.289C84.5391 109.576 84.5182 110.018 84.4766 110.617H84.5391ZM95.5234 107.445H93.3438V115H92.0469V107.445H90.5156V106.859L92.0469 106.391V105.914C92.0469 103.81 92.9661 102.758 94.8047 102.758C95.2578 102.758 95.7891 102.849 96.3984 103.031L96.0625 104.07C95.5625 103.909 95.1354 103.828 94.7812 103.828C94.2917 103.828 93.9297 103.992 93.6953 104.32C93.4609 104.643 93.3438 105.164 93.3438 105.883V106.438H95.5234V107.445ZM102.352 115L102.094 113.781H102.031C101.604 114.318 101.177 114.682 100.75 114.875C100.328 115.062 99.7995 115.156 99.1641 115.156C98.3151 115.156 97.6484 114.938 97.1641 114.5C96.6849 114.062 96.4453 113.44 96.4453 112.633C96.4453 110.904 97.8281 109.997 100.594 109.914L102.047 109.867V109.336C102.047 108.664 101.901 108.169 101.609 107.852C101.323 107.529 100.862 107.367 100.227 107.367C99.513 107.367 98.7057 107.586 97.8047 108.023L97.4062 107.031C97.8281 106.802 98.2891 106.622 98.7891 106.492C99.2943 106.362 99.7995 106.297 100.305 106.297C101.326 106.297 102.081 106.523 102.57 106.977C103.065 107.43 103.312 108.156 103.312 109.156V115H102.352ZM99.4219 114.086C100.229 114.086 100.862 113.865 101.32 113.422C101.784 112.979 102.016 112.359 102.016 111.562V110.789L100.719 110.844C99.6875 110.88 98.9427 111.042 98.4844 111.328C98.0312 111.609 97.8047 112.049 97.8047 112.648C97.8047 113.117 97.9453 113.474 98.2266 113.719C98.513 113.964 98.9115 114.086 99.4219 114.086ZM111.516 112.664C111.516 113.461 111.219 114.076 110.625 114.508C110.031 114.94 109.198 115.156 108.125 115.156C106.99 115.156 106.104 114.977 105.469 114.617V113.414C105.88 113.622 106.32 113.786 106.789 113.906C107.263 114.026 107.719 114.086 108.156 114.086C108.833 114.086 109.354 113.979 109.719 113.766C110.083 113.547 110.266 113.216 110.266 112.773C110.266 112.44 110.12 112.156 109.828 111.922C109.542 111.682 108.979 111.401 108.141 111.078C107.344 110.781 106.776 110.523 106.438 110.305C106.104 110.081 105.854 109.828 105.688 109.547C105.526 109.266 105.445 108.93 105.445 108.539C105.445 107.841 105.729 107.292 106.297 106.891C106.865 106.484 107.643 106.281 108.633 106.281C109.555 106.281 110.456 106.469 111.336 106.844L110.875 107.898C110.016 107.544 109.237 107.367 108.539 107.367C107.924 107.367 107.461 107.464 107.148 107.656C106.836 107.849 106.68 108.115 106.68 108.453C106.68 108.682 106.737 108.878 106.852 109.039C106.971 109.201 107.161 109.354 107.422 109.5C107.682 109.646 108.182 109.857 108.922 110.133C109.938 110.503 110.622 110.875 110.977 111.25C111.336 111.625 111.516 112.096 111.516 112.664ZM116.398 114.086C116.628 114.086 116.849 114.07 117.062 114.039C117.276 114.003 117.445 113.966 117.57 113.93V114.922C117.43 114.99 117.221 115.044 116.945 115.086C116.674 115.133 116.43 115.156 116.211 115.156C114.555 115.156 113.727 114.284 113.727 112.539V107.445H112.5V106.82L113.727 106.281L114.273 104.453H115.023V106.438H117.508V107.445H115.023V112.484C115.023 113 115.146 113.396 115.391 113.672C115.635 113.948 115.971 114.086 116.398 114.086Z" fill="#212121"/>
<path fill-rule="evenodd" clip-rule="evenodd" d="M88.3806 44.3419C87.4004 42.3617 85.3592 41 83 41C80.6408 41 78.5996 42.3617 77.6208 44.342C77.1254 44.1222 76.577 44 76 44C73.7909 44 72 45.7909 72 48C72 49.0144 72.3776 49.9406 72.9999 50.6458L73.0006 54H73V54.411C72.358 55.8078 72 57.3621 72 59C72 61.1575 72.6211 63.1699 73.6943 64.8682C73.7179 64.9132 73.7419 64.9581 73.7661 65.0027L73.4341 65.0148C67.6212 65.3138 63 70.1164 63 76V85.0088L63.0055 85.1574C63.0815 86.1877 63.9418 87 64.9973 87H101.003L101.152 86.9945C102.185 86.9187 103 86.0603 103 85.0088V76L102.996 75.7106C102.845 69.85 98.1096 65.1298 92.234 65.0025C92.2582 64.9579 92.2821 64.9132 92.3057 64.8682C93.3789 63.1699 94 61.1575 94 59C94 57.3626 93.6422 55.8088 93.0006 54.4124L93.001 50.6447C93.6227 49.9397 94 49.0139 94 48C94 45.7909 92.2091 44 90 44C89.423 44 88.8746 44.1222 88.3806 44.3419ZM74.8178 55.245L74.9305 55H91.0696L91.1833 55.2475L91.3364 55.6004C91.7724 56.6681 92 57.8164 92 59C92 60.7707 91.4898 62.4605 90.5445 63.9095L88.5752 66.9283L89.4802 66.9468C88.0118 68.3171 86.1085 69.2274 84 69.448V68.5H80.5L80.3006 68.5049C79.9203 68.5236 79.5538 68.5954 79.2084 68.7132C77.238 67.8545 75.6153 66.3471 74.6103 64.4607L75.4555 63.9095L75.2722 63.6165C74.4445 62.2348 74 60.6526 74 59C74 57.684 74.2814 56.4116 74.8178 55.245ZM78.1082 69.2933C76.4223 68.404 75.0077 67.0694 74.021 65.4461L74.0288 66.9999L74.009 66.999C69.1217 67 65.1443 70.8864 65.0038 75.7346L65 76L64.9987 84.9354L65 85L76.5 85.0004V72.4921C76.5 71.1835 77.1325 70.0214 78.1082 69.2933ZM77.5 85.0005L100.93 85.0013L101 84.999L101 76.0258L100.997 75.7623C100.875 71.0489 97.1291 67.2406 92.4403 67.0109L92.1789 67.0018L90.849 66.9747C88.9257 69.1375 86.1219 70.5 83 70.5C81.6617 70.5 80.3819 70.2496 79.2049 69.7932C78.2471 70.2519 77.5699 71.2032 77.5051 72.3165L77.5 72.4921V85.0005ZM75.0006 54H91.0007L91.0009 51.3548C90.7425 51.4318 90.4716 51.4797 90.192 51.4948L90 51.5V50.5C90.3559 50.5 90.6945 50.4256 91.001 50.2915L91.001 49.8887L91.501 49.3218C91.8217 48.9582 92 48.4956 92 48C92 46.8954 91.1046 46 90 46C89.7722 46 89.5524 46.0373 89.3458 46.1091L89.1935 46.1693L87.4397 46.9495L86.5881 45.2291C85.9176 43.8745 84.5378 43 83 43C81.5355 43 80.2146 43.7931 79.5141 45.038L79.4138 45.2281L78.5636 46.9484L76.8096 46.1701C76.5579 46.0584 76.2849 46 76 46C74.8954 46 74 46.8954 74 48C74 48.4339 74.1367 48.8424 74.3858 49.1814L74.4994 49.3223L74.9998 49.8892L74.9999 50.2919C75.2586 50.405 75.5401 50.4755 75.8356 50.4947L76 50.5V51.5C75.6525 51.5 75.3169 51.4494 75.0001 51.3551L75.0006 54ZM79.5 49C79.5 50.3444 81.0409 51.5 83 51.5C84.8892 51.5 86.3894 50.4254 86.4942 49.1433L86.5 49H87.5C87.5 50.9694 85.4591 52.5 83 52.5C80.6154 52.5 78.6241 51.0607 78.5056 49.1778L78.5 49H79.5ZM82 73V74H81V73H82ZM82 77V76H81V77H82ZM82 79V80H81V79H82ZM82 83V82H81V83H82Z" fill="#212121"/>
</g>
</g>
<defs>
<clipPath id="clip0_878_101543">
<rect width="1110" height="165" fill="white"/>
</clipPath>
<clipPath id="clip1_878_101543">
<rect width="165" height="165" fill="white" transform="translate(945)"/>
</clipPath>
<clipPath id="clip2_878_101543">
<rect width="165" height="165" fill="white" transform="translate(756)"/>
</clipPath>
<clipPath id="clip3_878_101543">
<rect width="165" height="165" fill="white" transform="translate(567)"/>
</clipPath>
<clipPath id="clip4_878_101543">
<rect width="165" height="165" fill="white" transform="translate(378)"/>
</clipPath>
<clipPath id="clip5_878_101543">
<rect width="165" height="165" fill="white" transform="translate(189)"/>
</clipPath>
<clipPath id="clip6_878_101543">
<rect width="165" height="165" fill="white"/>
</clipPath>
</defs>
</svg>
